<?xml version="1.0" encoding="UTF-8"?>
<!DOCTYPE svg PUBLIC "-//W3C//DTD SVG 1.1//EN" "http://www.w3.org/Graphics/SVG/1.1/DTD/svg11.dtd">
<svg version="1.2" width="57.16mm" height="74.91mm" viewBox="1376 35 5716 7491" preserveAspectRatio="xMidYMid" fill-rule="evenodd" stroke-width="28.222" stroke-linejoin="round" xmlns="http://www.w3.org/2000/svg" xmlns:ooo="http://xml.openoffice.org/svg/export" xmlns:xlink="http://www.w3.org/1999/xlink" xmlns:presentation="http://sun.com/xmlns/staroffice/presentation" xmlns:smil="http://www.w3.org/2001/SMIL20/" xmlns:anim="urn:oasis:names:tc:opendocument:xmlns:animation:1.0" xml:space="preserve">
 <defs class="ClipPathGroup">
  <clipPath id="presentation_clip_path" clipPathUnits="userSpaceOnUse">
   <rect x="1376" y="35" width="5716" height="7491"/>
  </clipPath>
  <clipPath id="presentation_clip_path_shrink" clipPathUnits="userSpaceOnUse">
   <rect x="1381" y="42" width="5705" height="7477"/>
  </clipPath>
 </defs>
 <defs class="TextShapeIndex">
  <g ooo:slide="id1" ooo:id-list="id3"/>
 </defs>
 <defs class="EmbeddedBulletChars">
  <g id="bullet-char-template-57356" transform="scale(0.00048828125,-0.00048828125)">
   <path d="M 580,1141 L 1163,571 580,0 -4,571 580,1141 Z"/>
  </g>
  <g id="bullet-char-template-57354" transform="scale(0.00048828125,-0.00048828125)">
   <path d="M 8,1128 L 1137,1128 1137,0 8,0 8,1128 Z"/>
  </g>
  <g id="bullet-char-template-10146" transform="scale(0.00048828125,-0.00048828125)">
   <path d="M 174,0 L 602,739 174,1481 1456,739 174,0 Z M 1358,739 L 309,1346 659,739 1358,739 Z"/>
  </g>
  <g id="bullet-char-template-10132" transform="scale(0.00048828125,-0.00048828125)">
   <path d="M 2015,739 L 1276,0 717,0 1260,543 174,543 174,936 1260,936 717,1481 1274,1481 2015,739 Z"/>
  </g>
  <g id="bullet-char-template-10007" transform="scale(0.00048828125,-0.00048828125)">
   <path d="M 0,-2 C -7,14 -16,27 -25,37 L 356,567 C 262,823 215,952 215,954 215,979 228,992 255,992 264,992 276,990 289,987 310,991 331,999 354,1012 L 381,999 492,748 772,1049 836,1024 860,1049 C 881,1039 901,1025 922,1006 886,937 835,863 770,784 769,783 710,716 594,584 L 774,223 C 774,196 753,168 711,139 L 727,119 C 717,90 699,76 672,76 641,76 570,178 457,381 L 164,-76 C 142,-110 111,-127 72,-127 30,-127 9,-110 8,-76 1,-67 -2,-52 -2,-32 -2,-23 -1,-13 0,-2 Z"/>
  </g>
  <g id="bullet-char-template-10004" transform="scale(0.00048828125,-0.00048828125)">
   <path d="M 285,-33 C 182,-33 111,30 74,156 52,228 41,333 41,471 41,549 55,616 82,672 116,743 169,778 240,778 293,778 328,747 346,684 L 369,508 C 377,444 397,411 428,410 L 1163,1116 C 1174,1127 1196,1133 1229,1133 1271,1133 1292,1118 1292,1087 L 1292,965 C 1292,929 1282,901 1262,881 L 442,47 C 390,-6 338,-33 285,-33 Z"/>
  </g>
  <g id="bullet-char-template-9679" transform="scale(0.00048828125,-0.00048828125)">
   <path d="M 813,0 C 632,0 489,54 383,161 276,268 223,411 223,592 223,773 276,916 383,1023 489,1130 632,1184 813,1184 992,1184 1136,1130 1245,1023 1353,916 1407,772 1407,592 1407,412 1353,268 1245,161 1136,54 992,0 813,0 Z"/>
  </g>
  <g id="bullet-char-template-8226" transform="scale(0.00048828125,-0.00048828125)">
   <path d="M 346,457 C 273,457 209,483 155,535 101,586 74,649 74,723 74,796 101,859 155,911 209,963 273,989 346,989 419,989 480,963 531,910 582,859 608,796 608,723 608,648 583,586 532,535 482,483 420,457 346,457 Z"/>
  </g>
  <g id="bullet-char-template-8211" transform="scale(0.00048828125,-0.00048828125)">
   <path d="M -4,459 L 1135,459 1135,606 -4,606 -4,459 Z"/>
  </g>
  <g id="bullet-char-template-61548" transform="scale(0.00048828125,-0.00048828125)">
   <path d="M 173,740 C 173,903 231,1043 346,1159 462,1274 601,1332 765,1332 928,1332 1067,1274 1183,1159 1299,1043 1357,903 1357,740 1357,577 1299,437 1183,322 1067,206 928,148 765,148 601,148 462,206 346,322 231,437 173,577 173,740 Z"/>
  </g>
 </defs>
 <defs class="TextEmbeddedBitmaps"/>
 <g class="SlideGroup">
  <g>
   <g id="container-id1">
    <g id="id1" class="Slide" clip-path="url(#presentation_clip_path)">
     <g class="Page">
      <g class="com.sun.star.drawing.ClosedBezierShape">
       <g id="id3">
        <rect class="BoundingBox" stroke="none" fill="none" x="1375" y="34" width="5718" height="7493"/>
        <path fill="currentColor" stroke="none" d="M 7092,3013 C 7093,2980 7075,2946 7075,2913 L 7075,2904 C 7075,2695 6994,2509 6840,2391 6938,2224 6978,2015 6899,1822 6886,1791 6873,1760 6860,1730 6774,1540 6608,1412 6420,1367 6440,1175 6375,975 6225,831 6200,808 6176,786 6151,763 5996,625 5792,575 5602,610 5543,426 5402,270 5206,199 5174,188 5142,177 5110,167 4912,103 4705,140 4546,250 4417,107 4226,22 4019,37 3985,39 3952,42 3918,46 3711,68 3537,186 3436,351 3259,272 3049,273 2865,372 2836,388 2807,406 2778,423 2598,527 2487,674 2462,902 L 2459,902 C 2267,902 2077,983 1949,1146 1929,1173 1909,1195 1889,1223 1767,1391 1738,1599 1793,1785 1616,1863 1475,2019 1425,2221 1417,2254 1410,2287 1403,2320 1360,2523 1419,2725 1544,2871 1414,3014 1350,3213 1386,3418 1392,3451 1398,3484 1405,3517 1449,3721 1584,3881 1759,3965 1698,4148 1721,4357 1838,4530 1856,4557 1876,4585 1896,4612 2018,4780 2207,4871 2400,4876 2419,5069 2524,5250 2701,5361 2714,5368 2726,5376 2739,5383 L 1570,7344 2537,7133 3217,7526 4208,5811 5198,7526 5919,7110 6881,7327 5656,5272 C 5807,5275 5959,5225 6083,5121 6109,5099 6134,5077 6158,5055 6313,4916 6384,4719 6369,4526 6559,4487 6728,4364 6819,4177 6834,4147 6845,4116 6859,4086 6944,3895 6924,3686 6832,3516 6989,3403 7085,3221 7092,3013 Z M 4216,4768 C 3200,4768 2376,3944 2376,2927 2376,1911 3200,1087 4216,1087 5233,1087 6057,1911 6057,2927 6057,3944 5233,4768 4216,4768 Z M 4216,1613 C 3490,1613 2902,2201 2902,2927 2902,3653 3490,4242 4216,4242 4942,4242 5531,3653 5531,2927 5531,2201 4942,1613 4216,1613 Z"/>
       </g>
      </g>
     </g>
    </g>
   </g>
  </g>
 </g>
</svg>