<?xml version="1.0" encoding="utf-8"?>
<!-- Generator: Adobe Illustrator 16.0.3, SVG Export Plug-In . SVG Version: 6.00 Build 0)  -->
<!DOCTYPE svg PUBLIC "-//W3C//DTD SVG 1.1//EN" "http://www.w3.org/Graphics/SVG/1.1/DTD/svg11.dtd">
<svg version="1.1" xmlns="http://www.w3.org/2000/svg" xmlns:xlink="http://www.w3.org/1999/xlink" x="0px" y="0px" width="240px"
	 height="240px" viewBox="0 0 240 240" enable-background="new 0 0 240 240" xml:space="preserve">
<g id="like_Kopie" display="none">
	<path fill="currentColor" d="M239.568,68.378c-0.469,4.336-1.288,8.641-2.401,12.822c-3.421,13.056-9.752,24.923-17.124,35.849
		c-7.375,10.928-15.777,20.913-23.841,30.091c-20.423,23.096-39.255,41.264-52.655,53.902c-6.702,6.312-12.041,11.265-15.587,14.75
		c-2.154,2.106-3.643,3.688-4.386,4.685c-0.558-0.895-2.279-2.633-5.019-5.144c-3.694-3.374-9.231-8.156-16.185-14.255
		c-13.914-12.215-33.506-29.788-54.892-52.223c-8.441-8.909-17.252-18.605-25.078-29.272C14.568,108.903,7.739,97.258,3.772,84.325
		c-1.298-4.168-2.306-8.45-2.948-12.787c-1.203-8.045-1.114-16.025,0.431-23.59c1.266-6.164,3.487-12.079,6.509-17.437
		c3.019-5.347,6.852-10.133,11.346-14.086c3.993-3.542,8.501-6.466,13.263-8.742c4.759-2.276,9.742-3.901,14.722-4.865
		c5.647-1.097,11.335-1.377,16.749-0.985c5.43,0.391,10.582,1.445,15.292,3.003c5.837,1.917,11.029,4.605,15.439,7.621
		c4.423,3.014,8.083,6.366,11.016,9.729c3.274,3.742,5.676,7.507,7.486,10.924c1.797,3.418,3.011,6.513,3.877,9.057
		c0.816,2.387,1.365,4.293,1.771,5.647c0.041,0.281,0.061,0.538,0.1,0.773c0.211,1.446,0.522,2.186,0.83,2.196
		c0.324,0,0.635-0.728,1.028-2.093c0.384-1.38,0.869-3.408,1.65-5.975c0.781-2.578,1.871-5.682,3.548-9.157
		c1.669-3.46,3.937-7.285,7.061-11.116c2.798-3.44,6.321-6.892,10.604-10.042c4.305-3.148,9.369-5.983,15.119-8.081
		c4.636-1.703,9.726-2.912,15.117-3.484c2.218-0.237,4.486-0.358,6.791-0.358c3.271,0,6.619,0.258,9.965,0.795
		c5.006,0.807,10.048,2.252,14.882,4.359c4.819,2.12,9.454,4.875,13.565,8.272c4.662,3.798,8.698,8.438,11.935,13.683
		c3.246,5.244,5.71,11.083,7.224,17.191C240.014,52.297,240.437,60.287,239.568,68.378z"/>
	<path display="inline" fill="currentColor" d="M239.568,67.901c-0.469,4.336-1.289,8.641-2.401,12.822
		c-3.422,13.056-9.753,24.923-17.124,35.849c-7.376,10.928-15.778,20.913-23.841,30.091c-20.423,23.096-39.255,41.264-52.656,53.902
		c-6.701,6.312-12.04,11.265-15.586,14.75c-2.154,2.106-3.643,3.688-4.386,4.685c-0.558-0.895-2.279-2.633-5.02-5.144
		c-3.693-3.374-9.23-8.156-16.183-14.255c-13.915-12.215-33.507-29.788-54.893-52.223c-8.441-8.909-17.253-18.605-25.078-29.272
		C14.568,108.426,7.739,96.782,3.772,83.849c-1.298-4.168-2.306-8.45-2.948-12.787c-1.203-8.045-1.114-16.025,0.431-23.59
		c1.266-6.164,3.487-12.079,6.509-17.437c3.019-5.347,6.852-10.133,11.346-14.086c3.993-3.542,8.501-6.466,13.263-8.742
		c4.759-2.276,9.742-3.901,14.722-4.865c5.647-1.097,11.336-1.377,16.749-0.985c5.43,0.391,10.582,1.445,15.293,3.003
		c5.837,1.917,11.029,4.605,15.438,7.621c4.423,3.014,8.083,6.366,11.016,9.729c3.274,3.742,5.677,7.507,7.486,10.924
		c1.797,3.418,3.011,6.513,3.878,9.057c0.815,2.387,1.365,4.293,1.771,5.647c0.04,0.281,0.061,0.538,0.1,0.773
		c0.212,1.446,0.522,2.186,0.829,2.196c0.324,0,0.635-0.728,1.029-2.093c0.384-1.38,0.869-3.408,1.65-5.975
		c0.781-2.578,1.871-5.682,3.548-9.157c1.669-3.46,3.937-7.285,7.061-11.116c2.798-3.44,6.321-6.892,10.603-10.042
		c4.306-3.148,9.37-5.983,15.12-8.081c4.636-1.703,9.725-2.912,15.116-3.484C176.001,0.122,178.269,0,180.573,0
		c3.271,0,6.619,0.258,9.966,0.795c5.006,0.807,10.048,2.252,14.881,4.359c4.82,2.12,9.455,4.875,13.565,8.272
		c4.663,3.798,8.698,8.438,11.936,13.683c3.246,5.244,5.709,11.083,7.224,17.191C240.014,51.82,240.437,59.81,239.568,67.901z"/>
</g>
<g id="Ebene_1" display="none">
	<polygon id="pressed" fill="currentColor" points="194.086,213.074 119.941,176.643 45.762,212.988 59.973,135.926 0,81.301
		82.926,70.102 120.051,0 157.086,70.151 240,81.445 179.969,135.994 	"/>
	<polygon id="aktiv" display="inline" fill="currentColor" points="194.086,213.074 119.941,176.643 45.762,212.988 59.973,135.926
		0,81.301 82.926,70.102 120.051,0 157.086,70.151 240,81.445 179.969,135.994 	"/>
</g>
<g id="Ebene_3" display="none">
	<rect x="-5.333" y="-5.333" display="inline" fill="currentColor" width="257" height="250.667"/>
</g>
<g id="like">
	<path fill="currentColor" d="M239.568,68.378c-0.469,4.336-1.288,8.641-2.401,12.822c-3.421,13.056-9.752,24.923-17.124,35.849
		c-7.375,10.928-15.777,20.913-23.841,30.091c-20.423,23.096-39.255,41.264-52.655,53.902c-6.702,6.312-12.041,11.265-15.587,14.75
		c-2.154,2.106-3.643,3.688-4.386,4.685c-0.558-0.895-2.279-2.633-5.019-5.144c-3.694-3.374-9.231-8.156-16.185-14.255
		c-13.914-12.215-33.506-29.788-54.892-52.223c-8.441-8.909-17.252-18.605-25.078-29.272C14.568,108.903,7.739,97.258,3.772,84.325
		c-1.298-4.168-2.306-8.45-2.948-12.787c-1.203-8.045-1.114-16.025,0.431-23.59c1.266-6.164,3.487-12.079,6.509-17.437
		c3.019-5.347,6.852-10.133,11.346-14.086c3.993-3.542,8.501-6.466,13.263-8.742c4.759-2.276,9.742-3.901,14.722-4.865
		c5.647-1.097,11.335-1.377,16.749-0.985c5.43,0.391,10.582,1.445,15.292,3.003c5.837,1.917,11.029,4.605,15.439,7.621
		c4.423,3.014,8.083,6.366,11.016,9.729c3.274,3.742,5.676,7.507,7.486,10.924c1.797,3.418,3.011,6.513,3.877,9.057
		c0.816,2.387,1.365,4.293,1.771,5.647c0.041,0.281,0.061,0.538,0.1,0.773c0.211,1.446,0.522,2.186,0.83,2.196
		c0.324,0,0.635-0.728,1.028-2.093c0.384-1.38,0.869-3.408,1.65-5.975c0.781-2.578,1.871-5.682,3.548-9.157
		c1.669-3.46,3.937-7.285,7.061-11.116c2.798-3.44,6.321-6.892,10.604-10.042c4.305-3.148,9.369-5.983,15.119-8.081
		c4.636-1.703,9.726-2.912,15.117-3.484c2.218-0.237,4.486-0.358,6.791-0.358c3.271,0,6.619,0.258,9.965,0.795
		c5.006,0.807,10.048,2.252,14.882,4.359c4.819,2.12,9.454,4.875,13.565,8.272c4.662,3.798,8.698,8.438,11.935,13.683
		c3.246,5.244,5.71,11.083,7.224,17.191C240.014,52.297,240.437,60.287,239.568,68.378z"/>
	<path display="none" fill="currentColor" d="M239.568,74.729c-0.469,3.945-1.289,7.851-2.401,11.658
		c-3.422,11.866-9.753,22.656-17.124,32.589c-7.376,9.94-15.778,19.009-23.841,27.347c-20.423,21.006-39.255,37.514-52.656,49.001
		c-6.701,5.744-12.04,10.248-15.586,13.421c-2.154,1.911-3.643,3.356-4.386,4.255c-0.558-0.816-2.279-2.398-5.02-4.675
		c-3.693-3.062-9.23-7.414-16.183-12.966c-13.915-11.102-33.507-27.073-54.893-47.477c-8.441-8.089-17.253-16.906-25.078-26.605
		c-7.832-9.705-14.661-20.294-18.628-32.056c-1.298-3.787-2.306-7.678-2.948-11.623c-1.203-7.315-1.114-14.563,0.431-21.444
		C2.522,50.549,4.743,45.178,7.765,40.3c3.019-4.859,6.852-9.205,11.346-12.798c3.993-3.223,8.501-5.879,13.263-7.95
		c4.759-2.071,9.742-3.549,14.722-4.426c5.647-1,11.336-1.25,16.749-0.897c5.43,0.362,10.582,1.318,15.293,2.729
		c5.837,1.75,11.029,4.195,15.438,6.93c4.423,2.738,8.083,5.788,11.016,8.847c3.274,3.4,5.677,6.823,7.486,9.928
		c1.797,3.106,3.011,5.927,3.878,8.237c0.815,2.172,1.365,3.903,1.771,5.129c0.04,0.262,0.061,0.489,0.1,0.705
		c0.212,1.319,0.522,1.991,0.829,2.001c0.324,0,0.635-0.667,1.029-1.908c0.384-1.253,0.869-3.095,1.65-5.428
		c0.781-2.344,1.871-5.164,3.548-8.327c1.669-3.148,3.937-6.621,7.061-10.103c2.798-3.125,6.321-6.265,10.603-9.131
		c4.306-2.865,9.37-5.437,15.12-7.348c4.636-1.546,9.725-2.648,15.116-3.162c2.219-0.217,4.486-0.329,6.791-0.329
		c3.271,0,6.619,0.238,9.966,0.727c5.006,0.729,10.048,2.047,14.881,3.958c4.82,1.924,9.455,4.436,13.565,7.521
		c4.663,3.456,8.698,7.667,11.936,12.443c3.246,4.765,5.709,10.068,7.224,15.628C240.014,60.113,240.437,67.371,239.568,74.729z"/>
</g>
</svg>
