<?xml version="1.0" encoding="utf-8"?>
<!-- Generator: Adobe Illustrator 16.0.3, SVG Export Plug-In . SVG Version: 6.00 Build 0)  -->
<!DOCTYPE svg PUBLIC "-//W3C//DTD SVG 1.1//EN" "http://www.w3.org/Graphics/SVG/1.1/DTD/svg11.dtd">
<svg version="1.1" id="Ebene_1" xmlns="http://www.w3.org/2000/svg" xmlns:xlink="http://www.w3.org/1999/xlink" x="0px" y="0px"
	 width="240px" height="240px" viewBox="0 0 240 240" enable-background="new 0 0 240 240" xml:space="preserve">
<polygon id="selected" display="none" fill="currentColor" points="194.086,213.074 119.941,176.643 45.762,212.988 59.973,135.926
	0,81.301 82.926,70.102 120.051,0 157.086,70.151 240,81.445 179.969,135.994 "/>
<polygon id="aktiv" display="none" fill="currentColor" points="194.086,213.074 119.941,176.643 45.762,212.988 59.973,135.926
	0,81.301 82.926,70.102 120.051,0 157.086,70.151 240,81.445 179.969,135.994 "/>
<g id="leer">
	<path fill="currentColor" d="M120.026,38.508l21.142,40.047l4.32,8.183l9.168,1.249l44.682,6.086l-31.475,28.6l-7.402,6.726l1.803,9.839
		l7.677,41.917l-42.062-20.667l-7.927-3.895l-7.931,3.886l-42.074,20.615l7.728-41.903l1.814-9.837l-7.395-6.735L40.646,93.975
		l44.689-6.036l9.168-1.238l4.33-8.176L120.026,38.508 M120.051,0L82.926,70.102L0,81.301l59.973,54.625l-14.211,77.063
		l74.179-36.346l74.145,36.432l-14.117-77.08L240,81.445l-82.914-11.294L120.051,0L120.051,0z"/>
</g>
</svg>
