<?xml version="1.0" encoding="utf-8"?>
<!-- Generator: Adobe Illustrator 16.0.3, SVG Export Plug-In . SVG Version: 6.00 Build 0)  -->
<!DOCTYPE svg PUBLIC "-//W3C//DTD SVG 1.1//EN" "http://www.w3.org/Graphics/SVG/1.1/DTD/svg11.dtd">
<svg version="1.1" id="Ebene_1" xmlns="http://www.w3.org/2000/svg" xmlns:xlink="http://www.w3.org/1999/xlink" x="0px" y="0px"
	 width="240px" height="240px" viewBox="0 0 240 240" enable-background="new 0 0 240 240" xml:space="preserve">
<g id="Ebene_3" display="none">
	<rect x="-5.333" y="-5.333" display="inline" fill="#C1272D" width="257" height="250.667"/>
</g>
<g id="like" display="none">
	<path id="selected" display="inline" fill="currentColor" d="M239.568,67.901c-0.469,4.336-1.289,8.641-2.401,12.822
		c-3.421,13.056-9.752,24.923-17.124,35.849c-7.375,10.928-15.777,20.913-23.841,30.092c-20.423,23.096-39.255,41.264-52.655,53.9
		c-6.701,6.313-12.041,11.266-15.587,14.75c-2.153,2.107-3.644,3.689-4.386,4.686c-0.559-0.895-2.279-2.633-5.019-5.145
		c-3.694-3.373-9.231-8.156-16.185-14.254c-13.914-12.215-33.506-29.789-54.892-52.223c-8.441-8.91-17.252-18.605-25.078-29.273
		c-7.832-10.68-14.661-22.325-18.628-35.258c-1.298-4.168-2.306-8.45-2.948-12.787c-1.203-8.045-1.114-16.025,0.431-23.59
		c1.266-6.164,3.487-12.079,6.509-17.437c3.019-5.347,6.852-10.133,11.346-14.086c3.993-3.542,8.501-6.466,13.263-8.742
		c4.759-2.276,9.742-3.901,14.722-4.865c5.647-1.097,11.335-1.377,16.749-0.985c5.43,0.391,10.582,1.445,15.292,3.003
		c5.837,1.917,11.029,4.605,15.439,7.621c4.423,3.014,8.083,6.366,11.016,9.729c3.274,3.742,5.676,7.507,7.486,10.924
		c1.797,3.418,3.011,6.513,3.877,9.057c0.816,2.387,1.365,4.293,1.771,5.647c0.041,0.281,0.061,0.538,0.1,0.773
		c0.211,1.446,0.522,2.186,0.83,2.196c0.324,0,0.635-0.728,1.029-2.093c0.383-1.38,0.869-3.408,1.649-5.975
		c0.78-2.578,1.871-5.682,3.548-9.157c1.669-3.46,3.938-7.285,7.061-11.116c2.799-3.44,6.322-6.892,10.604-10.042
		c4.306-3.148,9.369-5.983,15.119-8.081c4.636-1.703,9.726-2.912,15.117-3.484C176,0.121,178.268,0,180.573,0
		c3.271,0,6.618,0.258,9.965,0.795c5.006,0.807,10.048,2.252,14.882,4.359c4.818,2.12,9.454,4.875,13.564,8.272
		c4.662,3.798,8.699,8.438,11.936,13.683c3.246,5.244,5.71,11.083,7.225,17.191C240.014,51.82,240.438,59.81,239.568,67.901z"/>
	<path fill="currentColor" d="M239.568,67.901c-0.469,4.336-1.289,8.641-2.401,12.822c-3.422,13.056-9.753,24.923-17.124,35.849
		c-7.376,10.928-15.777,20.913-23.841,30.091c-20.423,23.096-39.255,41.265-52.656,53.901c-6.7,6.313-12.04,11.266-15.586,14.75
		c-2.153,2.106-3.644,3.688-4.386,4.686c-0.559-0.895-2.279-2.633-5.02-5.145c-3.693-3.373-9.23-8.155-16.183-14.254
		c-13.915-12.215-33.507-29.789-54.893-52.224c-8.441-8.909-17.253-18.604-25.078-29.272c-7.832-10.68-14.661-22.324-18.628-35.257
		c-1.298-4.168-2.306-8.45-2.948-12.787c-1.203-8.045-1.114-16.025,0.431-23.59c1.266-6.164,3.487-12.079,6.509-17.437
		c3.019-5.347,6.852-10.133,11.346-14.086c3.993-3.542,8.501-6.466,13.263-8.742c4.759-2.276,9.742-3.901,14.722-4.865
		c5.647-1.097,11.336-1.377,16.749-0.985c5.43,0.391,10.582,1.445,15.293,3.003c5.837,1.917,11.029,4.605,15.438,7.621
		c4.423,3.014,8.083,6.366,11.016,9.729c3.274,3.742,5.677,7.507,7.486,10.924c1.797,3.418,3.011,6.513,3.878,9.057
		c0.815,2.387,1.365,4.293,1.771,5.647c0.04,0.281,0.061,0.538,0.1,0.773c0.212,1.446,0.522,2.186,0.829,2.196
		c0.324,0,0.635-0.728,1.029-2.093c0.385-1.38,0.869-3.408,1.65-5.975c0.781-2.578,1.871-5.682,3.548-9.157
		c1.669-3.46,3.937-7.285,7.062-11.116c2.798-3.44,6.32-6.892,10.603-10.042c4.306-3.148,9.37-5.983,15.12-8.081
		c4.636-1.703,9.725-2.912,15.115-3.484C176.001,0.122,178.27,0,180.572,0c3.271,0,6.619,0.258,9.967,0.795
		c5.006,0.807,10.048,2.252,14.881,4.359c4.82,2.12,9.455,4.875,13.564,8.272c4.664,3.798,8.699,8.438,11.937,13.683
		c3.246,5.244,5.709,11.083,7.224,17.191C240.014,51.82,240.438,59.81,239.568,67.901z"/>
</g>
<g id="leer_1_">
	<path fill="currentColor" d="M180.574,18c2.374,0,4.766,0.191,7.101,0.566c3.639,0.586,7.18,1.622,10.524,3.076
		c3.513,1.547,6.648,3.452,9.321,5.66l0.049,0.04l0.049,0.04c3.095,2.521,5.781,5.61,7.998,9.202
		c2.292,3.703,3.993,7.756,5.06,12.059c1.324,5.324,1.658,11.157,0.997,17.324c-0.361,3.341-1.001,6.748-1.899,10.125l-0.01,0.035
		l-0.009,0.034c-2.495,9.523-7.282,19.449-14.632,30.342c-7.016,10.395-15.28,20.127-22.44,28.276
		c-19.528,22.08-37.771,39.757-51.476,52.682c-1.79,1.686-3.482,3.274-5.068,4.763c-1.014,0.951-1.979,1.857-2.897,2.721
		c-1.102-0.965-2.271-1.987-3.512-3.071c-1.712-1.497-3.545-3.099-5.483-4.799c-14.301-12.554-33.329-29.706-53.726-51.102
		c-7.503-7.92-16.171-17.379-23.604-27.509C29.089,97.79,23.877,88.011,20.981,78.57l-0.011-0.038l-0.012-0.038
		c-1.058-3.396-1.841-6.784-2.331-10.096c-0.918-6.141-0.83-11.97,0.261-17.306c0.888-4.321,2.42-8.43,4.552-12.21
		c2.061-3.65,4.604-6.82,7.561-9.42l0.028-0.024l0.027-0.024c2.64-2.342,5.695-4.349,9.085-5.969
		c3.315-1.586,6.806-2.74,10.388-3.434c2.81-0.546,5.723-0.823,8.659-0.823c1.117,0,2.246,0.041,3.364,0.122
		c3.789,0.273,7.467,0.992,10.971,2.151c3.866,1.269,7.532,3.079,10.917,5.394c2.871,1.956,5.424,4.206,7.605,6.706
		c1.967,2.248,3.641,4.694,5.117,7.478c1.068,2.036,1.97,4.148,2.761,6.473c0.477,1.395,0.843,2.588,1.163,3.655
		c1.989,12.258,10.887,16.895,17.972,17.13l0.299,0.01h0.299c3.276,0,14.279-1.089,18.323-15.102l0.024-0.084l0.023-0.084
		c0.139-0.5,0.29-1.071,0.458-1.712c0.296-1.126,0.631-2.403,1.076-3.865c0.726-2.394,1.53-4.477,2.534-6.558
		c1.313-2.723,2.928-5.267,4.813-7.579c2.046-2.516,4.497-4.832,7.287-6.886c3.272-2.39,6.852-4.302,10.677-5.697
		c3.389-1.245,7.026-2.08,10.822-2.482C177.289,18.086,178.932,18,180.574,18 M180.574,0c-2.305,0-4.573,0.122-6.791,0.358
		c-5.392,0.572-10.481,1.782-15.117,3.484c-5.75,2.097-10.814,4.933-15.119,8.081c-4.282,3.15-7.806,6.602-10.604,10.042
		c-3.124,3.832-5.392,7.656-7.061,11.116c-1.677,3.475-2.767,6.579-3.548,9.157c-0.781,2.567-1.266,4.594-1.649,5.975
		c-0.394,1.365-0.705,2.093-1.029,2.093c-0.308-0.01-0.618-0.75-0.83-2.196c-0.039-0.235-0.059-0.492-0.1-0.773
		c-0.406-1.354-0.955-3.26-1.771-5.647c-0.867-2.544-2.081-5.639-3.877-9.057c-1.81-3.417-4.212-7.182-7.486-10.924
		c-2.934-3.362-6.593-6.714-11.016-9.729c-4.41-3.015-9.602-5.704-15.439-7.621c-4.71-1.558-9.863-2.612-15.292-3.003
		c-1.533-0.111-3.087-0.168-4.657-0.168c-3.974,0-8.043,0.367-12.092,1.153c-4.98,0.964-9.963,2.589-14.722,4.865
		c-4.761,2.275-9.27,5.2-13.263,8.742c-4.494,3.954-8.328,8.739-11.346,14.086c-3.022,5.357-5.243,11.273-6.509,17.437
		c-1.545,7.565-1.634,15.545-0.431,23.59c0.642,4.337,1.649,8.619,2.948,12.787c3.967,12.933,10.796,24.578,18.628,35.259
		c7.826,10.666,16.637,20.362,25.078,29.271c21.386,22.435,40.978,40.008,54.892,52.223c6.953,6.099,12.49,10.881,16.185,14.255
		c2.74,2.511,4.461,4.249,5.019,5.144c0.743-0.996,2.231-2.578,4.386-4.685c3.546-3.485,8.885-8.438,15.587-14.75
		c13.4-12.639,32.232-30.807,52.655-53.902c8.063-9.178,16.466-19.163,23.841-30.091c7.372-10.926,13.703-22.793,17.124-35.849
		c1.113-4.181,1.933-8.485,2.401-12.822c0.868-8.091,0.445-16.081-1.424-23.601c-1.514-6.107-3.978-11.947-7.224-17.191
		c-3.236-5.245-7.272-9.885-11.935-13.683c-4.111-3.397-8.746-6.153-13.565-8.272c-4.834-2.107-9.876-3.552-14.882-4.359
		C187.193,0.258,183.845,0,180.574,0L180.574,0z"/>
</g>
</svg>
